<?xml version="1.0" encoding="UTF-8"?> <svg xmlns="http://www.w3.org/2000/svg" xmlns:xlink="http://www.w3.org/1999/xlink" width="60px" height="60px" viewBox="0 0 60 60"><!-- Generator: Sketch 54.1 (76490) - https://sketchapp.com --><title>Reloj home</title><desc>Created with Sketch.</desc><g id="Reloj-home" stroke="none" stroke-width="1" fill="none" fill-rule="evenodd"><g id="alarm-clock" transform="translate(10.000000, 9.000000)" fill="#895B9D"><path d="M28.25,21.3157895 L22.8935,21.3157895 C22.6205,20.2849474 21.79925,19.4781053 20.75,19.2098947 L20.75,11.7368421 C20.75,11.3293684 20.414,11 20,11 C19.586,11 19.25,11.3293684 19.25,11.7368421 L19.25,19.2098947 C17.96,19.5392632 17,20.6828421 17,22.0526316 C17,23.6781053 18.3455,25 20,25 C21.3935,25 22.55825,24.0568421 22.8935,22.7894737 L28.25,22.7894737 C28.664,22.7894737 29,22.4601053 29,22.0526316 C29,21.6451579 28.66475,21.3157895 28.25,21.3157895 Z M20,23.5263158 C19.17275,23.5263158 18.5,22.8653684 18.5,22.0526316 C18.5,21.2398947 19.17275,20.5789474 20,20.5789474 C20.82725,20.5789474 21.5,21.2398947 21.5,22.0526316 C21.5,22.8653684 20.82725,23.5263158 20,23.5263158 Z" id="Shape" fill-rule="nonzero"></path><path d="M35.4253192,7.0515799 L38.321092,10.0098706 C38.4540035,10.1456515 38.6335753,10.2214866 38.8209239,10.2214866 C39.0082725,10.2214866 39.1885513,10.1456515 39.3207558,10.0098706 C41.5597481,7.72326211 41.5597481,4.00156485 39.3207558,1.71495636 C37.0817635,-0.571652122 33.4394242,-0.571652122 31.2011389,1.71495636 C31.0682275,1.85073729 30.993995,2.03346374 30.993995,2.2255793 C30.993995,2.41769485 31.0682275,2.60114354 31.2011389,2.73620223 L34.4256555,6.03033404 L33.2245036,7.257418 C29.8451594,4.16334637 25.3848492,2.27685826 20.5003535,2.27685826 C15.6158578,2.27685826 11.1555476,4.16334637 7.77620337,7.257418 L6.57434454,6.03033404 L9.79886108,2.73620223 C9.93177253,2.60042131 10.006005,2.41769485 10.006005,2.2255793 C10.006005,2.03346374 9.93177253,1.85001505 9.79886108,1.71495636 C7.56057575,-0.571652122 3.91823653,-0.571652122 1.67924423,1.71495636 C-0.559748075,4.00156485 -0.559748075,7.72326211 1.67924423,10.0098706 C1.81215567,10.1456515 1.99172752,10.2214866 2.1790761,10.2214866 C2.36642469,10.2214866 2.54670351,10.1456515 2.67890798,10.0098706 L5.57468078,7.0515799 L6.75957219,8.26205236 C3.45163251,11.7699669 1.4113004,16.533855 1.4113004,21.7773097 C1.4113004,28.9260307 5.19856967,35.1849534 10.8289248,38.5801986 L8.68820213,40.7671381 C8.4117746,41.0495336 8.4117746,41.5059886 8.68820213,41.788384 C8.8260624,41.9292206 9.0070482,42 9.188034,42 C9.3690198,42 9.5500056,41.9292206 9.68786588,41.788384 L12.1269323,39.2966596 C14.6564917,40.5634667 17.4978273,41.2777611 20.4996465,41.2777611 C23.5014657,41.2777611 26.3428013,40.5634667 28.8723607,39.2966596 L31.3114271,41.788384 C31.4492874,41.9292206 31.6302732,42 31.811259,42 C31.9922448,42 32.1732306,41.9292206 32.3110909,41.788384 C32.5875184,41.5059886 32.5875184,41.0495336 32.3110909,40.7671381 L30.1703682,38.5801986 C35.8007234,35.1849534 39.5879926,28.9260307 39.5879926,21.7773097 C39.5879926,16.533855 37.5476605,11.7699669 34.2397208,8.26205236 L35.4253192,7.0515799 Z M38.320385,2.73620223 C39.8375551,4.28612699 39.9902618,6.70996088 38.7792123,8.43683419 L32.7409322,2.26746915 C34.4306043,1.03027385 36.802508,1.18555522 38.320385,2.73620223 Z M2.2200807,8.43611195 C1.00903118,6.70996088 1.16173795,4.28612699 2.67890798,2.73620223 C4.19607801,1.18627746 6.56868873,1.03099609 8.25836085,2.26746915 L2.2200807,8.43611195 Z M20.4996465,39.8332832 C10.7539854,39.8332832 2.82525197,31.7333735 2.82525197,21.7773097 C2.82525197,11.8212459 10.7539854,3.72133614 20.4996465,3.72133614 C30.2453077,3.72133614 38.1740411,11.8212459 38.1740411,21.7773097 C38.1740411,31.7333735 30.2460146,39.8332832 20.4996465,39.8332832 Z" id="Shape" fill-rule="nonzero"></path><path d="M20.5,7 C20.776,7 21,6.702 21,6.33333333 L21,5.66666667 C21,5.298 20.776,5 20.5,5 C20.224,5 20,5.298 20,5.66666667 L20,6.33333333 C20,6.70133333 20.224,7 20.5,7 Z" id="Path"></path><path d="M20.5,36 C20.224,36 20,36.298 20,36.6666667 L20,37.3333333 C20,37.702 20.224,38 20.5,38 C20.776,38 21,37.702 21,37.3333333 L21,36.6666667 C21,36.298 20.7765,36 20.5,36 Z" id="Path"></path><path d="M34.6666667,22 L35.3333333,22 C35.7013333,22 36,21.7765 36,21.5 C36,21.2235 35.7013333,21 35.3333333,21 L34.6666667,21 C34.2986667,21 34,21.2235 34,21.5 C34,21.7765 34.2986667,22 34.6666667,22 Z" id="Path"></path><path d="M4.33333333,21 L3.66666667,21 C3.29866667,21 3,21.2235 3,21.5 C3,21.7765 3.29866667,22 3.66666667,22 L4.33333333,22 C4.70133333,22 5,21.7765 5,21.5 C5,21.2235 4.702,21 4.33333333,21 Z" id="Path"></path><path d="M30.7388735,11.2166405 L30.2166205,11.7389417 C29.9277932,12.0277957 29.9277932,12.4946902 30.2166205,12.7835442 C30.3606648,12.9276018 30.5497692,13 30.7388735,13 C30.9279778,13 31.1170822,12.9276018 31.2611265,12.7835442 L31.7833795,12.261243 C32.0722068,11.972389 32.0722068,11.5054945 31.7833795,11.2166405 C31.4945522,10.9277865 31.0269621,10.9277865 30.7388735,11.2166405 Z" id="Path"></path><path d="M8.7388735,32.2163935 L8.2166205,32.7387671 C7.92779317,33.0276611 7.92779317,33.4946202 8.2166205,33.7835142 C8.36066482,33.9275918 8.54976916,34 8.7388735,34 C8.92797784,34 9.11708218,33.9275918 9.2611265,33.7835142 L9.7833795,33.2611406 C10.0722068,32.9722466 10.0722068,32.5052875 9.7833795,32.2163935 C9.49455217,31.9274995 9.02770083,31.9282384 8.7388735,32.2163935 Z" id="Path"></path><path d="M31.2611265,32.2166405 C30.9722992,31.9277865 30.5054478,31.9277865 30.2166205,32.2166405 C29.9277932,32.5054945 29.9277932,32.972389 30.2166205,33.261243 L30.7388735,33.7835442 C30.8829178,33.9276018 31.0720222,34 31.2611265,34 C31.4502308,34 31.6393352,33.9276018 31.7833795,33.7835442 C32.0722068,33.4946902 32.0722068,33.0277957 31.7833795,32.7389417 L31.2611265,32.2166405 Z" id="Path"></path><path d="M9.2611265,11.2166405 C8.97229917,10.9277865 8.50544783,10.9277865 8.2166205,11.2166405 C7.92779317,11.5054945 7.92779317,11.972389 8.2166205,12.261243 L8.7388735,12.7835442 C8.88291782,12.9276018 9.07202216,13 9.2611265,13 C9.45023084,13 9.63933518,12.9276018 9.7833795,12.7835442 C10.0722068,12.4946902 10.0722068,12.0277957 9.7833795,11.7389417 L9.2611265,11.2166405 Z" id="Path"></path></g></g></svg> 